<svg width="70" height="70" viewBox="0 0 70 70" fill="none" xmlns="http://www.w3.org/2000/svg">
<path d="M70 35C70 15.67 54.33 0 35 0C15.67 0 0 15.67 0 35C0 54.33 15.67 70 35 70C54.33 70 70 54.33 70 35Z" fill="#6F6FC8"/>
<path d="M46.6111 37H24.3889C23.6297 37 23 36.32 23 35.5C23 34.68 23.6297 34 24.3889 34H46.6111C47.3703 34 48 34.68 48 35.5C48 36.32 47.3703 37 46.6111 37Z" fill="white"/>
<path d="M35.5 48C34.68 48 34 47.3703 34 46.6111V24.3889C34 23.6297 34.68 23 35.5 23C36.32 23 37 23.6297 37 24.3889V46.6111C37 47.3703 36.32 48 35.5 48Z" fill="white"/>
</svg>
